<svg width="65" height="65" xmlns="http://www.w3.org/2000/svg">

 <g>
  <title>background</title>
  <rect fill="none" id="canvas_background" height="402" width="582" y="-1" x="-1"/>
 </g>
 <g>
  <title>Layer 1</title>
  <path id="svg_2" fill="#f7c463" d="m57,64l-49,0c-0.552,0 -1,-0.447 -1,-1l0,-6c0,-0.553 0.448,-1 1,-1l49,0c0.552,0 1,0.447 1,1l0,6c0,0.553 -0.448,1 -1,1zm-48,-2l47,0l0,-4l-47,0l0,4z"/>
  <path id="svg_4" fill="#f7c463" d="m54,58l-43,0c-0.552,0 -1,-0.447 -1,-1l0,-4c0,-0.553 0.448,-1 1,-1l43,0c0.552,0 1,0.447 1,1l0,4c0,0.553 -0.448,1 -1,1zm-42,-2l41,0l0,-2l-41,0l0,2z"/>
  <path id="svg_6" fill="#f7c463" d="m23.5,53l-10,0c-0.276,0 -0.5,-0.224 -0.5,-0.5l0,-3c0,-0.276 0.224,-0.5 0.5,-0.5l10,0c0.276,0 0.5,0.224 0.5,0.5l0,3c0,0.276 -0.224,0.5 -0.5,0.5zm-9.5,-1l9,0l0,-2l-9,0l0,2z"/>
  <path id="svg_8" fill="#f7c463" d="m23.5,35l-10,0c-0.276,0 -0.5,-0.224 -0.5,-0.5l0,-4c0,-0.276 0.224,-0.5 0.5,-0.5l10,0c0.276,0 0.5,0.224 0.5,0.5l0,4c0,0.276 -0.224,0.5 -0.5,0.5zm-9.5,-1l9,0l0,-3l-9,0l0,3z"/>
  <path id="svg_10" fill="#f7c463" d="m37.5,35l-10,0c-0.276,0 -0.5,-0.224 -0.5,-0.5l0,-4c0,-0.276 0.224,-0.5 0.5,-0.5l10,0c0.276,0 0.5,0.224 0.5,0.5l0,4c0,0.276 -0.224,0.5 -0.5,0.5zm-9.5,-1l9,0l0,-3l-9,0l0,3z"/>
  <path id="svg_12" fill="#f7c463" d="m51.5,35l-10,0c-0.276,0 -0.5,-0.224 -0.5,-0.5l0,-4c0,-0.276 0.224,-0.5 0.5,-0.5l10,0c0.276,0 0.5,0.224 0.5,0.5l0,4c0,0.276 -0.224,0.5 -0.5,0.5zm-9.5,-1l9,0l0,-3l-9,0l0,3z"/>
  <path id="svg_14" fill="#f7c463" d="m51.5,53l-10,0c-0.276,0 -0.5,-0.224 -0.5,-0.5l0,-3c0,-0.276 0.224,-0.5 0.5,-0.5l10,0c0.276,0 0.5,0.224 0.5,0.5l0,3c0,0.276 -0.224,0.5 -0.5,0.5zm-9.5,-1l9,0l0,-2l-9,0l0,2z"/>
  <path id="svg_16" fill="#f7c463" d="m37.5,53l-10,0c-0.276,0 -0.5,-0.224 -0.5,-0.5l0,-3c0,-0.276 0.224,-0.5 0.5,-0.5l10,0c0.276,0 0.5,0.224 0.5,0.5l0,3c0,0.276 -0.224,0.5 -0.5,0.5zm-9.5,-1l9,0l0,-2l-9,0l0,2z"/>
  <path id="svg_18" fill="#f7c463" d="m57,32l-49,0c-0.425,0 -0.803,-0.269 -0.944,-0.669c-0.141,-0.401 -0.012,-0.848 0.32,-1.112l25.044,-20c0.371,-0.298 0.9,-0.292 1.265,0.014l23.956,20c0.323,0.27 0.442,0.713 0.299,1.108c-0.143,0.395 -0.519,0.659 -0.94,0.659zm-46.145,-2l43.387,0l-21.212,-17.709l-22.175,17.709z"/>
  <path id="svg_20" fill="#FFBE06" d="m33,29.5c-3.584,0 -6.5,-2.916 -6.5,-6.5s2.916,-6.5 6.5,-6.5s6.5,2.916 6.5,6.5s-2.916,6.5 -6.5,6.5zm0,-12c-3.033,0 -5.5,2.468 -5.5,5.5s2.467,5.5 5.5,5.5s5.5,-2.468 5.5,-5.5s-2.467,-5.5 -5.5,-5.5z"/>
  <rect id="svg_24" y="34" x="43" width="2" height="15" fill="#f7c463"/>
  <rect id="svg_25" y="34" x="48" width="2" height="15" fill="#f7c463"/>
  <rect id="svg_27" y="34" x="29" width="2" height="15" fill="#f7c463"/>
  <rect id="svg_28" y="34" x="34" width="2" height="15" fill="#f7c463"/>
  <polygon id="svg_29" points="20,34 20,49 17,49 17,34 15,34 15,50 22,50 22,34  " fill="#f7c463"/>
  <text stroke="null" transform="matrix(0.4995931595066345,0,0,0.5044592354774764,15.80300037696166,13.760691821315666) " xml:space="preserve" text-anchor="start" font-family="Helvetica, Arial, sans-serif" font-size="24" id="svg_30" y="27.477248" x="27.568819" stroke-opacity="null" stroke-width="0" fill="#f7c463">₹</text>
 </g>
</svg>