<svg width="80" height="80" xmlns="http://www.w3.org/2000/svg">
 <title/>

 <g>
  <title>background</title>
  <rect fill="none" id="canvas_background" height="402" width="582" y="-1" x="-1"/>
 </g>
 <g>
  <title>Layer 1</title>
  <path fill="#e0995e" id="svg_1" d="m40,5.4c-19.1,0 -34.6,15.5 -34.6,34.6s15.5,34.6 34.6,34.6s34.6,-15.5 34.6,-34.6c-0.1,-19.1 -15.5,-34.5 -34.6,-34.6zm0,66.2c-17.4,0 -31.6,-14.2 -31.6,-31.6s14.2,-31.6 31.6,-31.6s31.6,14.2 31.6,31.6c0,0 0,0 0,0c-0.1,17.4 -14.2,31.5 -31.6,31.6z"/>
  <path fill="#e0995e" id="svg_2" d="m21.4,16.5l10.8,23.5l-10.8,23.5l41.7,-23.5l-41.7,-23.5zm6.6,7.2l26.3,14.8l-19.5,0l-6.8,-14.8zm6.8,17.8l19.5,0l-26.3,14.8l6.8,-14.8z"/>
 </g>
</svg>