<svg width="28" height="32" xmlns="http://www.w3.org/2000/svg">

 <g>
  <title>background</title>
  <rect fill="none" id="canvas_background" height="402" width="582" y="-1" x="-1"/>
 </g>
 <g>
  <title>Layer 1</title>
  <path stroke="null" transform="rotate(-89.67253875732422 13.805308341979982,23.503650665283203) " id="svg_2" fill="#ab843a" d="m19.265403,9.776271l0,3.324605c0,1.374451 -0.426575,2.667401 -1.197129,3.636038l-7.723305,9.655493c-1.221011,1.531467 -1.893284,3.542523 -1.967674,5.690863l-2.762128,0l4.095066,5.147764l4.095075,-5.147764l-2.700699,0c0.071666,-1.233755 0.466836,-2.37913 1.167772,-3.264542l7.723305,-9.652072c1.29063,-1.621543 1.999763,-3.773313 1.999763,-6.065779l0,-3.324605l-2.730047,0z"/>
  <path stroke="null" transform="rotate(89.48937225341797 13.867677688598633,10.099281311035154) " id="svg_4" fill="#ab843a" d="m19.02365,23.800127l0,-3.318177c0,-1.371794 -0.402807,-2.662244 -1.13045,-3.629008l-7.293115,-9.636835c-1.153002,-1.528497 -1.787839,-3.535674 -1.858085,-5.679851l-2.60828,0l3.866983,-5.137821l3.866975,5.137821l-2.550272,0c0.067674,1.23136 0.440834,2.374531 1.102737,3.258231l7.293115,9.633402c1.218743,1.618417 1.888378,3.766027 1.888378,6.054062l0,3.318177l-2.577986,0z"/>
 </g>
</svg>