<svg width="46" height="100" xmlns="http://www.w3.org/2000/svg">

 <g>
  <title>background</title>
  <rect fill="none" id="canvas_background" height="402" width="582" y="-1" x="-1"/>
 </g>
 <g>
  <title>Layer 1</title>
  <path fill="#e0995e" id="svg_2" d="m35.162,0c6.696,0 10.043,4.567 10.043,9.789c0,6.522 -5.814,12.555 -13.391,12.555c-6.344,0 -10.045,-3.752 -9.869,-9.947c0,-5.221 4.405,-12.397 13.217,-12.397zm-20.619,100c-5.287,0 -9.164,-3.262 -5.463,-17.615l6.07,-25.457c1.057,-4.077 1.23,-5.707 0,-5.707c-1.588,0 -8.451,2.816 -12.51,5.59l-2.64,-4.405c12.863,-10.926 27.662,-17.334 34.004,-17.334c5.285,0 6.168,6.361 3.525,16.148l-6.949,26.76c-1.234,4.729 -0.703,6.359 0.527,6.359c1.586,0 6.787,-1.963 11.896,-6.041l2.997,4.079c-12.512,12.723 -26.17,17.623 -31.457,17.623z"/>
 </g>
</svg>