<svg width="30" height="30" xmlns="http://www.w3.org/2000/svg" style="vector-effect: non-scaling-stroke;" stroke="null">

 <g stroke="null">
  <title stroke="null">background</title>
  <rect stroke="null" fill="none" id="canvas_background" height="402" width="582" y="-1" x="-1"/>
 </g>
 <g stroke="null">
  <title stroke="null">Layer 1</title>
  <path fill="#ab843a" stroke="null" id="svg_2" d="m21.88399,2.659563c-0.151,-0.012 -0.29,0.03 -0.403,0.125c-0.112,0.093 -0.182,0.225 -0.196,0.37c-0.014,0.146 0.03,0.29 0.125,0.403c0.093,0.112 0.225,0.182 0.373,0.196c0.016,0.002 0.033,0.003 0.049,0.003c0.28,0 0.521,-0.214 0.547,-0.498c0.014,-0.146 -0.03,-0.289 -0.125,-0.402s-0.226,-0.183 -0.37,-0.197z"/>
  <path fill="#ab843a" stroke="null" transform="rotate(180 14.866548538208006,15.202160835266115) " id="svg_3" d="m29.547239,4.798089l-7.003,6.913829c-0.077,0.07507 -0.186,0.11842 -0.281,0.114191l-6.308,-0.124764c0.001,0.023261 0.007,0.044408 0.004,0.067669l-0.219,1.658938c-0.015,0.115248 -0.075,0.219923 -0.165,0.286534c-0.09,0.067669 -0.201,0.091987 -0.31,0.069783l-0.674,-0.143796c-0.411,-0.111019 -0.766,-0.154369 -1.06,-0.159656l1.639,1.040405c0.042,0.026433 0.079,0.061325 0.109,0.10256l0.76,1.028774l5.996,-1.712862c0.536,-0.732724 3.417,-4.57609 5.595,-5.709539c0.062,-0.040178 0.134,-0.063439 0.208,-0.063439c0.01,0 0.021,0.001057 0.03,0.002115c0.378,0.030662 0.378,0.030662 0.868,3.24175c0.023,0.151197 -0.032,0.303451 -0.146,0.39861l-4.364,3.657277c1.677,-0.308738 4.109,-0.512801 5.305,0.550865c0.117,0.104675 0.168,0.271732 0.13,0.429273c-0.039,0.157541 -0.159,0.278076 -0.31,0.309795c-0.02,0.003172 -1.959,0.412356 -7.496,1.741409c-0.164,0.191375 -0.569,0.647081 -1.194,1.287818c2.322,0.916698 4.521,1.926441 4.962,2.130504c0.159,0.072955 0.255,0.245299 0.238,0.428215c-0.017,0.181859 -0.143,0.331999 -0.312,0.372177c-0.321,0.076127 -7.907,1.867231 -9.89,2.071294c-0.323,0.033834 -0.636,0.025376 -0.942,-0.003172c-0.844,0.542406 -1.669,0.993883 -2.452,1.336455c-0.356,0.666113 -1.957,3.426781 -4.088,3.482819c-1.29,0.038064 -2.479,-0.911412 -3.533,-2.809305c-0.104,-0.17763 -0.891,-0.96745 -1.561,-1.597614c-0.12,-0.112076 -0.164,-0.289706 -0.113,-0.450419s0.187,-0.273846 0.347,-0.287592l2.435,-0.211464c0.458,-1.415754 2.728,-7.648668 7.479,-8.675328c-0.343,-0.780304 -1.228,-2.283816 -2.891,-2.168568c-0.202,0.001057 -0.362,-0.116305 -0.412,-0.310853l-0.391,-1.517257l-0.266,-0.005287c-0.044,0.007401 -0.088,0.006344 -0.132,-0.002115l-1.671,-0.032777c-0.116,0.351031 -0.347,1.056265 -0.583,1.804849c0.845,0.692546 0.806,2.48365 -0.138,4.218715c-0.898,1.652594 -4.221,4.370969 -4.362,4.486218c-0.128,0.105732 -0.303,0.117363 -0.443,0.03172c-0.141,-0.085643 -0.219,-0.251643 -0.198,-0.420814c0.023,-0.186089 0.573,-4.59195 1.472,-6.243487c0.793,-1.459104 1.944,-2.366287 2.88,-2.366287c0.013,0 0.024,0.004229 0.037,0.005287c0.186,-0.591043 0.367,-1.149309 0.493,-1.533117l-1.312,-0.025376l-4.541,6.067971c-0.137,0.183974 -0.389,0.214636 -0.562,0.068726c-0.173,-0.144853 -0.203,-0.411298 -0.065,-0.594215l4.164,-5.563629l-0.826,-0.01586c-0.005,0 -0.009,-0.003172 -0.013,-0.003172c-0.021,-0.001057 -0.042,-0.010573 -0.063,-0.014803c-0.03,-0.007401 -0.061,-0.011631 -0.088,-0.025376c-0.003,-0.002115 -0.007,-0.001057 -0.01,-0.003172l-3.032,-1.636735c-0.196,-0.10679 -0.274,-0.361604 -0.174,-0.568839c0.071,-0.146968 0.211,-0.231554 0.357,-0.231554c0.061,0 0.123,0.01586 0.181,0.046522l2.95,1.592327l4.633,0.091987c-0.101,-0.107847 -0.21,-0.224152 -0.324,-0.345744c-0.328,0.137452 -0.899,0.288649 -1.586,0.083528c-1.04,-0.309795 -1.942,-1.300506 -2.684,-2.943585c-0.135,-0.298165 -0.307,-0.706291 -0.5,-1.167284c-0.521,-1.240239 -1.741,-4.142588 -2.201,-4.358282c-0.184,-0.016917 -0.333,-0.163885 -0.363,-0.35526c-0.029,-0.192433 0.068,-0.379579 0.237,-0.456763c0.052,-0.023261 0.811,-0.360547 1.841,-0.360547c0.707,0 1.541,0.157541 2.362,0.684087c1.909,1.224379 3.036,3.974474 3.356,8.163584c0.447,0.475795 0.82,0.87652 1.007,1.076354l11.966,0.235783c-0.063,-0.085643 -0.131,-0.179745 -0.204,-0.279133c-0.026,-0.002115 -0.051,0.007401 -0.077,0c-3.921,-1.142965 -6.302,-2.862171 -7.08,-5.111095c-0.81,-2.344083 0.457,-4.33925 0.511,-4.422778c0.079,-0.120535 0.209,-0.197719 0.343,-0.197719c0.042,0 0.085,0.007401 0.126,0.023261c0.172,0.066611 0.278,0.233668 0.258,0.426101c0.111,0.550865 2.565,2.375803 3.614,3.155049c0.393,0.291821 0.739,0.550865 0.991,0.748584c1.382,1.08587 2.126,2.21509 2.213,3.352768c0.049,0.638623 -0.125,1.137679 -0.295,1.467563c0.222,0.305566 0.405,0.556151 0.52,0.711578l6.743,-6.6569c0.077,-0.076127 0.176,-0.114191 0.273,-0.114191c0.106,0 0.214,0.045465 0.292,0.13428c0.153,0.175515 0.144,0.443018 -0.017,0.601616zm-25.638,11.035271c-0.567,1.043577 -1.004,3.464844 -1.221,4.870026c1.04,-0.905068 2.798,-2.52277 3.366,-3.566347c0.624,-1.148252 0.76,-2.273242 0.539,-2.846311c-0.151,0.5054 -0.28,0.96322 -0.344,1.258213c-0.099,0.447247 -0.29,0.640737 -0.555,0.909297c-0.185,0.188203 -0.438,0.445133 -0.796,0.920928c-0.136,0.181859 -0.388,0.213579 -0.562,0.067669c-0.173,-0.144853 -0.202,-0.411298 -0.064,-0.594215c0.391,-0.520202 0.667,-0.799335 0.869,-1.004456c0.24,-0.243184 0.286,-0.294993 0.329,-0.490597c0.074,-0.3394 0.224,-0.867004 0.395,-1.436901c-0.575,0.149082 -1.368,0.832112 -1.956,1.912696zm0.692,-13.619366c-1.035,-0.66717 -2.125,-0.614304 -2.803,-0.475795c0.531,0.722151 1.161,2.100899 2.063,4.247263c0.191,0.454648 0.359,0.854316 0.491,1.148252c0.625,1.384035 1.373,2.243637 2.163,2.488936c0.285,0.087758 0.535,0.082471 0.739,0.048637c-0.753,-0.798278 -1.565,-1.649422 -1.988,-2.062835c-0.361,-0.354203 -0.435,-0.66717 -0.538,-1.100672c-0.088,-0.374292 -0.222,-0.941017 -0.654,-1.97825c-0.524,-1.271958 -0.858,-1.478136 -1.01,-1.488709c-0.221,-0.014803 -0.388,-0.215694 -0.375,-0.449362c0.014,-0.224152 0.189,-0.396496 0.399,-0.396496c0.008,0 0.017,0.001057 0.025,0.001057c0.896,0.060267 1.435,1.367117 1.724,2.069179c0.428,1.027717 0.572,1.635677 0.667,2.03746c0.094,0.395438 0.119,0.503285 0.306,0.684087c0.367,0.35949 1.008,1.027717 1.654,1.70969c-0.387,-3.314705 -1.342,-5.502304 -2.863,-6.482442zm10.168,10.603883l0.237,0.050751l0.156,-1.182086l-2.647,-0.051809l0.181,1.077411c0.432,-0.09093 1.136,-0.146968 2.073,0.105732zm0.815,11.13043c1.467,-0.151197 6.296,-1.244468 8.578,-1.772072c-2.796,-1.243411 -7.686,-3.259724 -9.03,-3.132845c-1.758,0.180802 -3.087,1.428442 -2.963,2.780757c0.115,1.241296 1.415,2.146364 2.988,2.146364c0.14,-0.001057 0.282,-0.008459 0.427,-0.022204zm-9.153,0.821539c-0.048,0.164942 -0.187,0.283362 -0.35,0.297108l-1.783,0.155426c0.435,0.429273 0.913,0.9241 1.035,1.141908c0.897,1.614531 1.842,2.407522 2.824,2.395892c1.903,-0.048637 3.457,-3.137075 3.472,-3.168794c0.044,-0.088815 0.117,-0.158598 0.206,-0.196662c0.548,-0.233668 1.126,-0.541349 1.713,-0.882864c-1.196,-0.46205 -2.066,-1.418926 -2.176,-2.606299c-0.167,-1.816479 1.484,-3.47859 3.682,-3.703799c0.058,-0.006344 0.121,-0.009516 0.188,-0.009516c0.942,0 2.741,0.574126 4.585,1.273016c0.996,-1.002341 1.509,-1.619817 1.513,-1.625104c0.056,-0.067669 0.131,-0.114191 0.213,-0.13428c3.255,-0.782418 5.29,-1.251869 6.434,-1.509856c-1.639,-0.363719 -4.21,0.180802 -5.263,0.490597c-0.186,0.056038 -0.378,-0.037006 -0.464,-0.215694s-0.041,-0.397553 0.108,-0.523374l5.541,-4.644816c-0.119,-0.772902 -0.25,-1.572238 -0.339,-2.068122c-2.153,1.416812 -4.952,5.292954 -4.982,5.33419c-0.054,0.074013 -0.129,0.127936 -0.214,0.152254l-6.382,1.822823c-0.156,0.044408 -0.32,-0.013745 -0.419,-0.148025l-0.878,-1.18843l-1.11,-0.704177c0.28,0.456763 0.48,0.914584 0.584,1.277245c0.034,0.119477 0.017,0.248471 -0.047,0.353146c-0.064,0.104675 -0.169,0.174458 -0.286,0.189261c-5.096,0.674571 -7.382,8.369762 -7.405,8.446946zm4.187,-12.217357c0.483,0.014803 0.91,0.143796 1.294,0.336228l-0.213,-1.269844l-1.329,-0.026433l0.248,0.960048zm10.615,-3.843366c-0.074,-0.868061 -0.728,-1.810135 -1.892,-2.724719c-0.247,-0.195605 -0.588,-0.449362 -0.975,-0.735896c-1.814,-1.348086 -2.971,-2.269013 -3.537,-2.958387c-0.259,0.678801 -0.52,1.797448 -0.1,3.00068c0.625,1.793218 2.516,3.222718 5.595,4.268409c-0.547,-0.772902 -1.109,-1.59127 -1.401,-2.091383c-0.133,-0.229439 -0.228,-0.275961 -0.576,-0.449362c-0.355,-0.176573 -0.892,-0.443018 -1.826,-1.132392c-0.532,-0.390152 -1.64,-1.201118 -1.522,-2.141077c0.027,-0.212522 0.198,-0.367948 0.396,-0.367948c0.018,0 0.035,0.002115 0.053,0.004229c0.219,0.030662 0.373,0.243184 0.344,0.474738c-0.024,0.195605 0.161,0.585756 1.25,1.384035c0.815,0.600559 1.295,0.839514 1.645,1.013972c0.383,0.190318 0.659,0.32777 0.918,0.770788c0.313,0.538177 0.975,1.489767 1.575,2.329281c0.048,-0.181859 0.075,-0.397553 0.053,-0.644966z"/>
 </g>
</svg>