<svg width="512" height="512" xmlns="http://www.w3.org/2000/svg">
 <defs>
  <linearGradient y2="Infinity" y1="Infinity" x2="Infinity" x1="Infinity" id="SVGID_1_">
   <stop stop-color="#000000" offset="0"/>
   <stop stop-color="#FFFFFF" stop-opacity="0" offset="1"/>
  </linearGradient>
  <linearGradient y2="Infinity" y1="Infinity" x2="Infinity" x1="Infinity" id="SVGID_2_">
   <stop stop-color="#000000" offset="0"/>
   <stop stop-color="#FFFFFF" stop-opacity="0" offset="1"/>
  </linearGradient>
 </defs>
 <g>
  <title>background</title>
  <rect fill="none" id="canvas_background" height="402" width="582" y="-1" x="-1"/>
 </g>
 <g>
  <title>Layer 1</title>
  <path id="svg_6" fill="#526471" d="m175.7,189.26l-130.84,0c0,-5.41 0.92,-10.6 2.62,-15.43c6.36,-18.09 23.6,-31.06 43.87,-31.07l0,0.01l58.97,0c2.09,11.29 6.4,21.8 12.45,31.06c3.7,5.64 8.04,10.82 12.93,15.43z"/>
  <path id="svg_7" fill="#FFC035" d="m319.63,126.53c0.04,5.55 -0.45,10.98 -1.43,16.24c-2.08,11.29 -6.39,21.8 -12.45,31.06c-3.69,5.64 -8.04,10.83 -12.93,15.43l-117.12,0c-4.89,-4.61 -9.23,-9.79 -12.93,-15.43c-6.05,-9.26 -10.36,-19.77 -12.45,-31.06c-0.9,-4.87 -1.38,-9.88 -1.42,-15c-0.34,-47.14 37.6,-85.64 84.74,-85.98l0.62,0c46.87,-0.02 85.03,37.81 85.37,84.74z"/>
  <path id="svg_8" fill="#526471" d="m393.56,189.26l-100.74,0c4.89,-4.6 9.24,-9.79 12.93,-15.43c6.06,-9.26 10.37,-19.77 12.45,-31.06l20.31,0l0,-0.01l8.55,0c20.27,0 37.51,12.97 43.88,31.07c1.7,4.83 2.62,10.02 2.62,15.43z"/>
  <path id="svg_9" fill="#ECEFF0" d="m338.52,307.09c12.84,0 23.25,10.41 23.25,23.25c0,12.85 -10.41,23.26 -23.25,23.26c-12.85,0 -23.26,-10.41 -23.26,-23.26c0,-12.84 10.41,-23.25 23.26,-23.25z"/>
  <path id="svg_10" fill="#758289" d="m338.52,283.83c-25.49,0 -46.19,20.5 -46.51,45.91c-0.01,0.2 -0.01,0.41 -0.01,0.61c0,25.68 20.83,46.5 46.52,46.5l126.79,0l0,-93.02l-126.79,0zm23.25,46.51c0,12.85 -10.41,23.26 -23.25,23.26c-12.85,0 -23.26,-10.41 -23.26,-23.26c0,-0.2 0,-0.4 0.02,-0.6c0.31,-12.56 10.59,-22.65 23.24,-22.65c12.64,0 22.92,10.09 23.24,22.65c0.01,0.2 0.01,0.4 0.01,0.6z"/>
  <polyline id="svg_12" points="465.31,424.92 465.31,376.85 465.31,283.83 465.31,235.77       " fill="none"/>
  <polyline id="svg_13" points="91.35,142.77 99.9,142.77 150.32,142.77       " fill="none"/>
  <line id="svg_14" y2="142.77" y1="142.77" x2="318.2" x1="338.51" fill="none"/>
  <line id="svg_15" y2="470.21" y1="470.21" x2="91.36" x1="418.81" fill="none"/>
  <path id="svg_16" fill="none" d="m465.32,423.71c0,0.4 0,0.81 -0.01,1.21c-0.64,25.11 -21.23,45.29 -46.5,45.29"/>
  <path id="svg_17" fill="none" d="m44.86,423.7c0,25.69 20.82,46.51 46.5,46.51"/>
  <path id="svg_18" fill="none" d="m465.31,235.77c0,-25.68 -20.81,-46.51 -46.5,-46.51l-25.25,0l-36.68,0l-31.31,0l-31.02,0l-1.73,0l-34.08,0l-0.3,0l-23.73,0l-5.05,0l-2.54,0l-26.51,0l-2.26,0l-22.65,0l-10.92,0l-33.56,0l-31.32,0l-55.04,0"/>
  <path id="svg_19" fill="none" d="m91.36,142.76l-0.01,0c-25.68,0.01 -46.49,20.82 -46.49,46.5"/>
  <line id="svg_20" y2="142.76" y1="142.76" x2="338.51" x1="347.06" fill="none"/>
  <path id="svg_21" fill="none" d="m393.56,189.26c0,-25.68 -20.82,-46.5 -46.5,-46.5"/>
  <polyline id="svg_22" points="44.85,423.71 44.85,423.7 44.85,189.26       " fill="none"/>
  <path id="svg_23" fill="none" d="m338.52,376.85c-25.69,0 -46.52,-20.82 -46.52,-46.5c0,-25.69 20.83,-46.52 46.52,-46.52"/>
  <line id="svg_24" y2="283.83" y1="283.83" x2="465.31" x1="338.52" fill="none"/>
  <line id="svg_25" y2="376.85" y1="376.85" x2="338.52" x1="465.31" fill="none"/>
  <path id="svg_26" fill="none" d="m338.52,307.09c12.84,0 23.25,10.41 23.25,23.25c0,12.85 -10.41,23.26 -23.25,23.26c-12.85,0 -23.26,-10.41 -23.26,-23.26c0,-12.84 10.41,-23.25 23.26,-23.25z"/>
  <path id="svg_27" fill="none" d="m175.7,189.26c-12.9,-12.17 -22.02,-28.31 -25.38,-46.49c-0.9,-4.87 -1.38,-9.88 -1.42,-15c-0.34,-47.14 37.6,-85.64 84.74,-85.98c47.15,-0.35 85.65,37.6 85.99,84.74c0.04,5.55 -0.45,10.98 -1.43,16.24c-3.35,18.16 -12.46,34.32 -25.38,46.49"/>
  <path id="svg_28" fill="#303C44" d="m292,330.35c0,25.68 20.83,46.5 46.52,46.5l126.79,0l0,48.07c-0.64,25.11 -21.23,45.29 -46.5,45.29l-327.45,0c-25.68,0 -46.5,-20.82 -46.5,-46.51l-0.01,0l0,-234.44l373.96,0c25.69,0 46.5,20.83 46.5,46.51l0,48.06l-126.79,0c-25.69,0 -46.52,20.83 -46.52,46.52z"/>
  <path id="svg_30" opacity="0.2" d="m393.56,189.26l-348.7,0c0,-5.41 0.92,-10.6 2.62,-15.43l343.46,0c1.7,4.83 2.62,10.02 2.62,15.43z"/>
  <path id="svg_31" opacity="0.2" fill="url(#SVGID_1_)" d="m465.31,329.74l0,47.11l-126.79,0c-25.69,0 -46.52,-20.82 -46.52,-46.5c0,-0.2 0,-0.41 0.01,-0.61l173.3,0z"/>
  <path stroke="null" id="svg_32" opacity="0.2" fill="url(#SVGID_2_)" d="m319.629966,126.53c0.040596,5.55 -0.456707,10.98 -1.451312,16.24c-2.111,11.29 -6.485235,21.8 -12.635552,31.06c-3.744995,5.64 -8.159826,10.83 -13.122706,15.43l-59.432766,0l0,-147.47c47.56854,-0.02 86.297269,37.81 86.642336,84.74z"/>
  <text stroke="null" transform="matrix(4.340485382605116,0,0,4.333462238311768,-703.4155062905738,-193.48218535631892) " xml:space="preserve" text-anchor="start" font-family="Helvetica, Arial, sans-serif" font-size="24" id="svg_34" y="83.494376" x="209.458665" stroke-opacity="null" stroke-width="0" fill="#333333">₹</text>
 </g>
</svg>