<svg width="128" height="128" xmlns="http://www.w3.org/2000/svg">

 <g>
  <title>background</title>
  <rect fill="none" id="canvas_background" height="402" width="582" y="-1" x="-1"/>
 </g>
 <g>
  <title>Layer 1</title>
  <path id="svg_1" fill="#e0995e" d="m90.8,15c-20.1,0 -26.8,16 -26.8,16s-6.7,-16 -26.8,-16s-31.2,16 -31.2,34.3c0,34.3 58,64 58,64s58,-29.7 58,-64c0.1,-18.3 -11.1,-34.3 -31.2,-34.3zm-0.2,76c-11.1,8.9 -22.2,15.4 -26.5,17.7c-4.3,-2.4 -15.5,-8.8 -26.6,-17.8c-12.6,-10.1 -27.5,-25.5 -27.5,-41.6c0,-8.3 2.5,-15.9 7.1,-21.4c4.9,-5.8 11.9,-8.9 20.2,-8.9c17.2,0 23,13.4 23.1,13.5l3.7,8.8l3.7,-8.8c0.2,-0.5 6,-13.5 23,-13.5c8.3,0 15.2,3.1 20.1,8.9c4.6,5.5 7.1,13.1 7.1,21.4c0.1,16.1 -14.9,31.6 -27.4,41.7z"/>
 </g>
</svg>