<?xml version="1.0" encoding="UTF-8"?>
<svg width="35px" height="35px" viewBox="0 0 35 35" version="1.1" xmlns="http://www.w3.org/2000/svg" xmlns:xlink="http://www.w3.org/1999/xlink">
    <!-- Generator: Sketch 50.2 (55047) - http://www.bohemiancoding.com/sketch -->
    <title>icon/dark/user@1.5x</title>
    <desc>Created with Sketch.</desc>
    <defs></defs>
    <g id="VDs_2" stroke="none" stroke-width="1" fill="none" fill-rule="evenodd">
        <g id="04-Role-Selection" transform="translate(-1715.000000, -23.000000)" fill="#ab843a">
            <g id="Group-6" transform="translate(1715.000000, 23.000000)">
                <g id="icon/dark/profile">
                    <path d="M25.8814063,2.1415625 C34.3645312,6.7659375 37.4948437,17.3971875 32.8682812,25.8825 C29.6920312,31.7078125 23.6851562,35.00875 17.4879687,35.00875 C14.6573438,35.00875 11.7873437,34.3196875 9.12515625,32.869375 C0.64203125,28.245 -2.48828125,17.61375 2.13828125,9.12625 C5.31453125,3.303125 11.3214063,0.0021875 17.5185938,0 C20.3492187,0 23.2192187,0.69125 25.8814063,2.1415625 Z M30.9476563,24.8327188 C34.9901563,17.4192813 32.2470312,8.10271875 24.8335938,4.06021875 C22.5870313,2.83303125 20.0582813,2.18553125 17.5207813,2.18553125 C11.9010937,2.18771875 6.74515625,5.24803125 4.05890625,10.1742812 C0.52390625,16.6580313 2.17984375,24.5986563 7.60921875,29.1902188 C8.04453125,26.3902188 10.4529688,24.2333438 13.3754688,24.2333438 L21.5414063,24.2333438 C24.4770313,24.2333438 26.8920313,26.4120938 27.3098437,29.2339688 C28.7601563,28.0220938 30.0114063,26.5499063 30.9476563,24.8327188 Z M10.1729688,30.9467813 C12.4195313,32.1717813 14.9482813,32.8192813 17.4879688,32.8192813 C20.2551562,32.8192813 22.9064062,32.0711563 25.2098437,30.7258438 L25.2098437,30.0870938 C25.2098437,28.0658438 23.5648438,26.4208438 21.5414062,26.4208438 L13.3754688,26.4208438 C11.3520313,26.4208438 9.70703125,28.0658438 9.70703125,30.0870938 L9.70703125,30.6602188 C9.86453125,30.7542813 10.0110938,30.8592813 10.1729688,30.9467813 Z M17.4770313,7.53965625 C20.7057813,7.53965625 23.3329688,10.1668438 23.3329688,13.3977813 L23.3329688,16.1190313 C23.3329688,19.3499688 20.7057813,21.9771563 17.4770313,21.9771563 C14.2482813,21.9771563 11.6210938,19.3499688 11.6210938,16.1190313 L11.6210938,13.3977813 C11.6210938,10.1668438 14.2482813,7.53965625 17.4770313,7.53965625 Z M21.1454688,16.1190313 L21.1454688,13.3977813 C21.1454688,11.3743438 19.5004688,9.72715625 17.4770313,9.72715625 C15.4535938,9.72715625 13.8085938,11.3743438 13.8085938,13.3977813 L13.8085938,16.1190313 C13.8085938,18.1424688 15.4535938,19.7896563 17.4770313,19.7896563 C19.5004688,19.7896563 21.1454688,18.1424688 21.1454688,16.1190313 Z" id="Shape"></path>
                </g>
            </g>
        </g>
    </g>
</svg>